<?xml version="1.0" encoding="utf-8"?>
<!-- Generator: Adobe Illustrator 16.0.0, SVG Export Plug-In . SVG Version: 6.00 Build 0)  -->
<!DOCTYPE svg PUBLIC "-//W3C//DTD SVG 1.1//EN" "http://www.w3.org/Graphics/SVG/1.1/DTD/svg11.dtd">
<svg version="1.1" id="Layer_1" xmlns="http://www.w3.org/2000/svg" xmlns:xlink="http://www.w3.org/1999/xlink" x="0px" y="0px"
	 width="383px" height="161.5px" viewBox="0 140.5 383 161.5" enable-background="new 0 140.5 383 161.5" xml:space="preserve">
<g>
	<path fill="#ED1C24" d="M96.451,190.059c-1.971,1.068-3.799,2.541-5.404,4.121c-4.963,4.896-8.6,10.777-11.983,16.814
		c-7.718,13.77-13.466,28.386-18.452,43.322c-0.238,0.715-0.507,1.416-0.762,2.123c0.587-4.512,1.463-8.92,2.436-13.305
		c4.408-19.861,8.88-39.707,13.223-59.58c0.517-2.365,0.686-4.898,0.482-7.31c-0.257-3.039-2.635-4.47-5.425-3.297
		c-2.227,0.937-4.452,2.174-6.261,3.758c-9.682,8.476-16.913,18.787-22.106,30.526c-1.856,4.197-3.155,8.556-2.89,13.248
		c0.336,5.944,5.851,10.42,11.731,9.399c0.434-0.073,0.966-0.673,1.078-1.119c0.068-0.274-0.517-0.922-0.922-1.058
		c-0.724-0.239-1.533-0.237-2.309-0.307c-4.548-0.404-7.407-3.213-7.234-7.773c0.107-2.832,0.632-5.771,1.616-8.422
		c4.721-12.733,12.352-23.541,22.447-32.59c1.449-1.301,3.204-2.328,4.96-3.199c1.942-0.963,3.111-0.303,3.117,1.854
		c0.006,2.256-0.293,4.551-0.771,6.76c-5.731,26.511-11.541,53.002-17.265,79.513c-0.657,3.041-0.971,6.162-1.297,9.261
		c-0.053,0.512,0.654,1.106,1.011,1.661c0.513-0.338,1.233-0.56,1.499-1.034c0.519-0.931,0.849-1.98,1.146-3.015
		c4.506-15.711,9.784-31.147,16.719-45.97c4.28-9.149,8.912-18.127,15.462-25.899c1.979-2.349,4.416-4.412,6.951-6.161
		c2.345-1.617,4.257-0.843,4.967,1.855c0.603,2.289,1.025,4.759,0.845,7.095c-0.574,7.478-1.378,14.938-2.258,22.386
		c-1.106,9.356-2.39,18.69-3.551,28.039c-0.115,0.934-0.031,1.932,0.166,2.855c0.355,1.666,1.739,2.035,2.915,0.783
		c0.606-0.647,1.151-1.42,1.482-2.233c0.258-0.631,0.699-1.625,0.19-2.136c-0.518-0.521-1.464,0.095-2.426,0.158
		c0.024-0.396,0.024-1.112,0.12-1.817c1.33-9.815,2.829-19.608,3.96-29.447c0.82-7.144,1.239-14.338,1.652-21.521
		c0.097-1.685-0.358-3.478-0.901-5.104C103.117,189.427,100.03,188.118,96.451,190.059"/>
	<path fill="#ED1C24" d="M284.503,223.943c0.226-1.897-1.771-1.494-2.967-1.578c-3.403-0.241-6.813-0.373-10.423-0.559
		c0.209-0.926,0.402-1.789,0.6-2.652c2.869-12.45,5.787-24.891,8.563-37.362c0.502-2.259,0.537-4.646,0.533-6.974
		c-0.002-0.721-0.699-1.77-1.349-2.059c-0.536-0.238-1.636,0.231-2.194,0.721c-0.934,0.816-1.779,1.816-2.408,2.89
		c-2.49,4.239-5.012,8.471-7.284,12.829c-5.33,10.216-10.513,20.507-15.806,30.738c-0.295,0.568-1.065,1.275-1.604,1.271
		c-5.698-0.103-11.395-0.312-17.088-0.552c-0.902-0.036-1.795-0.188-1.944,0.959c-0.166,1.273,0.788,1.418,1.763,1.453
		c3.418,0.125,6.834,0.252,10.252,0.396c2.121,0.092,4.24,0.221,6.336,0.332c0,0.322,0.045,0.461-0.006,0.548
		c-4.586,7.81-9.16,15.622-13.795,23.399c-0.478,0.801-1.25,1.469-2,2.051c-1.637,1.27-3.211,1.127-4.642-0.388
		c-0.572-0.606-1.138-1.28-1.474-2.03c-4.301-9.549-4.688-19.143,0.093-28.631c1.641-3.257,4.446-5.576,8.099-5.964
		c2.788-0.298,5.672,0.392,8.52,0.528c0.633,0.03,1.742,0.022,1.933-0.636c0.19-0.657-0.754-1.391-1.295-1.56
		c-8.692-2.704-16.75-0.483-20.606,9.048c-2.675,6.601-2.783,13.457-1.58,20.375c0.635,3.635,1.709,7.133,4.131,10.041
		c2.584,3.099,5.984,3.342,8.926,0.563c1.123-1.063,2.186-2.272,2.967-3.598c4.391-7.438,8.667-14.941,13.045-22.387
		c0.354-0.602,1.165-1.305,1.779-1.318c4.73-0.107,9.467-0.06,14.564-0.06c-0.244,1.183-0.357,1.765-0.48,2.345
		c-2.499,11.795-5.074,23.576-7.439,35.398c-0.572,2.85-0.586,5.834-0.6,8.76c-0.007,1.555,1.238,2.413,2.217,1.678
		c1.088-0.818,1.996-2.053,2.592-3.293c0.383-0.797-0.404-1.459-1.393-1.213c-0.301,0.074-0.566,0.295-0.963,0.59
		c-0.139,0.104-0.41-0.17-0.377-0.422c1.918-14.889,5.563-29.094,8.82-43.436c3.765,0.188,7.291,0.412,10.819,0.502
		C282.443,224.723,284.286,225.786,284.503,223.943 M268.947,220.527c-0.108,0.455-0.782,1.105-1.192,1.107
		c-4.317,0.006-8.635-0.1-12.954-0.188c-0.228-0.004-0.453-0.121-0.992-0.274c8.153-15.224,15.211-33.185,24.256-45.532
		c0.146-0.201,0.727-0.007,0.707,0.243c-0.211,2.865-0.648,5.535-1.268,8.236C274.723,196.271,271.846,208.402,268.947,220.527"/>
	<path fill="#ED1C24" d="M188.098,187.139c0.514-7.113-2.871-12.483-9.308-14.445c-3.559-1.084-7.23-1.139-10.869-0.594
		c-3.12,0.469-6.198,1.217-9.053,1.793c-0.541-0.603-0.787-1.725-1.52-1.694c-1.47,0.059-1.087,1.026-1.471,1.905
		c-0.306,0.699-0.924,1.311-1.555,1.672c-3.998,2.287-8.228,4.214-12.027,6.785c-5.589,3.782-10.273,8.508-12.535,15.131
		c-1.298,3.798-1.209,7.567,0.527,11.209c0.232,0.483,0.991,1.266,1.584,1.031c0.634-0.248,0.689-1.457,0.479-1.951
		c-2.089-4.898-1.192-9.461,1.589-13.705c5.024-7.666,12.489-12.228,20.926-16.109c-0.173,0.9-0.258,1.473-0.393,2.029
		c-2.014,8.343-4.093,16.666-6.041,25.022c-4.374,18.757-8.718,37.519-12.981,56.304c-0.619,2.729-0.793,5.576-1.001,8.381
		c-0.043,0.58,0.585,1.604,1.074,1.723c0.542,0.131,1.453-0.393,1.887-0.9c0.647-0.758,1.064-1.732,1.495-2.652
		c1.003-2.139,0.606-2.7-2.123-2.438c3.031-13.521,6.033-26.907,9.128-40.713c3.794,5.797,8.781,6.317,13.56,4.567
		c2.879-1.057,5.709-2.573,8.153-4.422c7.122-5.389,11.745-12.752,15.405-20.754C185.532,198.836,187.657,193.241,188.098,187.139
		 M166.345,223.091c-3.17,2.533-6.647,4.358-10.843,4.791c-5.287,0.548-9.087-4.84-7.965-9.33
		c3.332-13.327,6.509-26.694,9.787-40.036c0.148-0.604,0.577-1.437,1.073-1.613c5.92-2.122,11.971-3.488,18.291-2.188
		c6.176,1.271,9.153,5.123,9.06,12.478c-0.09,3.931-1.637,8.469-3.472,12.922C178.641,208.923,173.934,217.027,166.345,223.091"/>
	<path fill="#ED1C24" d="M359.436,221.377c-0.754-0.98-1.45-0.119-2.004,0.521c-2.002,2.316-3.996,4.639-5.983,6.967
		c-2.873,3.369-5.736,6.748-8.688,10.222c-0.762-1.313-1.455-2.487-2.129-3.673c-1.598-2.813-3.463-5.514-4.719-8.471
		c-2.5-5.881,1.52-10.791,7.816-9.883c0.444,0.064,1.254-0.316,1.381-0.674c0.141-0.396-0.166-1.195-0.537-1.465
		c-0.492-0.355-1.226-0.461-1.867-0.513c-4.135-0.332-7.656,1.897-9.223,5.757c-0.357,0.881-0.668,1.836-1.242,2.564
		c-2.262,2.875-4.496,5.791-6.984,8.461c-1.66,1.781-3.621,3.354-5.656,4.694c-2.135,1.412-4.049,0.813-5.008-1.155
		c-1.512-3.101-0.156-9.494,2.228-11.938c2.246-2.304,4.319-4.8,6.25-7.375c0.922-1.23,1.45-2.898,0.082-4.287
		c-0.916-0.929-2.886-0.561-4.216,1.227c-1.807,2.428-3.688,4.986-4.684,7.793c-1.889,5.318-5.559,9.037-9.758,12.385
		c-0.992,0.791-2.492,2.111-3.672,1.5c-1.224-0.633-0.998-2.694-0.916-4.006c0.156-2.438,0.828-4.84,1.113-7.276
		c0.073-0.658,0-1.918-0.728-2.08c-0.672-0.149-1.312,0.899-1.421,1.457c-0.568,2.875-1.088,5.772-1.361,8.687
		c-0.188,1.983-0.014,4.147,2.016,5.237c2.055,1.106,4.021,0.146,5.672-1.099c2.145-1.616,4.127-3.448,6.271-5.266
		c0.146,1.488,0.183,2.982,0.457,4.428c0.67,3.521,3.295,5.457,6.607,4.726c1.299-0.284,2.68-0.911,3.66-1.789
		c2.768-2.469,5.373-5.122,7.983-7.76c0.982-0.994,1.804-2.144,2.494-2.978c1.904,3.348,3.771,6.619,5.625,9.896
		c0.767,1.354,1.625,2.68,2.191,4.116c0.248,0.625,0.094,1.634-0.267,2.237c-1.743,2.938-3.729,5.735-5.401,8.711
		c-0.896,1.598-1.568,3.406-1.894,5.201c-0.18,0.994,0.248,2.616,0.978,3.114c0.719,0.492,2.246,0.14,3.264-0.248
		c0.898-0.338,1.676-1.157,2.353-1.905c3.44-3.825,4.922-8.36,4.319-13.444c-0.182-1.545,0.16-2.612,1.107-3.724
		c4.758-5.564,9.502-11.146,14.176-16.785C359.529,222.999,359.744,221.783,359.436,221.377 M317.5,218.232
		c0.676-1.625,1.646-3.608,3.232-4.621c0.211-0.135,0.688,0.25,0.584,0.479c-1.056,2.303-1.826,3.188-3.349,4.479
		C317.822,218.693,317.426,218.41,317.5,218.232 M334.914,257.654c1.043-4.758,3.746-8.391,6.406-12.504
		C342.07,249.996,338.92,256.119,334.914,257.654"/>
	<path fill="#ED1C24" d="M295.402,206.833c0.554-2.613,1.688-4.927,2.933-7.281c2.544-4.813,4.908-9.741,7.031-14.754
		c0.865-2.039,1.021-4.414,1.256-6.662c0.063-0.614-0.643-1.696-1.215-1.883c-0.604-0.194-1.729,0.215-2.168,0.741
		c-0.986,1.183-1.924,2.511-2.465,3.938c-1.574,4.146-3.306,8.28-4.326,12.575c-5.273,18.304-8.232,35.416-12.193,53.16
		c-1.163,5.204-1.896,10.508-2.823,15.765c0.156,1.913,1.168,3.099,1.889,2.284c0.895-1.013,1.936-2.854,1.559-3.797
		c-0.523-1.321-0.439-2.401-0.197-3.552C288.232,240.518,291.838,223.678,295.402,206.833 M303.57,179.99
		c0.186-0.282,1.02,0.027,0.951,0.357c-1.025,4.893-2.062,6.184-4.835,12.484c-0.112,0.256-0.851-0.023-0.782-0.295
		C300.051,188.088,301.352,183.418,303.57,179.99"/>
	<path fill="#ED1C24" d="M202.346,221.669c-0.496-0.332-1.189,0.229-1.724,0.479c-0.284,0.131-0.412,0.57-0.646,0.847
		c-2.717,3.196-5.336,6.485-8.206,9.534c-1.369,1.455-3.112,2.66-4.882,3.611c-2.089,1.125-3.809,0.285-4.597-1.848
		c-1.31-3.547,0.124-9.26,2.856-11.885c1.596-1.535,3.148-3.143,4.498-4.891c0.894-1.16,1.568-2.571,1.991-3.974
		c0.208-0.688-0.137-1.933-0.677-2.353c-0.537-0.42-1.832-0.444-2.439-0.069c-1.193,0.733-2.347,1.724-3.151,2.862
		c-3.578,5.072-5.333,10.813-5.897,16.729c0.064,1.016,0.067,1.797,0.168,2.568c0.681,5.156,4.894,7.309,9.302,4.545
		c5.762-3.611,9.741-9.004,13.602-14.449C202.792,223.032,202.833,221.996,202.346,221.669 M188.147,214.212
		c0.449-0.453,1.106-0.541,0.697,0.261c-0.96,1.879-1.833,2.622-2.997,3.95c-0.134,0.152-0.54-0.034-0.487-0.231
		C185.82,216.479,186.756,215.614,188.147,214.212"/>
	<path fill="#ED1C24" d="M128.301,221.527c-0.407-0.224-1.192-0.104-1.558,0.187c-0.538,0.429-0.834,1.151-1.26,1.731
		c-2.853,3.886-5.854,7.64-10.103,10.105c-1.959,1.139-2.886,0.635-3.088-1.605c-0.102-1.123-0.05-2.287,0.121-3.403
		c0.307-2.015,0.845-3.994,1.093-6.015c0.071-0.586-0.125-1.744-0.803-1.883c-0.639-0.131-1.27,0.812-1.391,1.334
		c-0.632,2.736-1.541,5.467-1.617,8.277c-0.06,2.219-0.005,4.615,2.29,5.805c2.275,1.182,4.262-0.145,6.131-1.404
		c0.349-0.233,7.34-5.844,10.051-10.95C128.305,223.445,128.874,221.84,128.301,221.527"/>
	<path fill="#ED1C24" d="M112.755,214.576c-0.403,0.998-0.658,2.166,0.891,2.019c1.548-0.151,2.079-1.063,2.079-1.7
		c0-0.636-0.212-1.188-0.785-1.252C114.94,213.641,113.158,213.58,112.755,214.576"/>
	<path fill="#ED1C24" d="M300.021,214.583c-0.404,0.998-0.658,2.166,0.891,2.017c1.549-0.148,2.08-1.062,2.08-1.699
		c0-0.635-0.213-1.187-0.785-1.252C302.207,213.648,300.424,213.587,300.021,214.583"/>
</g>
</svg>
