<?xml version="1.0" encoding="utf-8"?>
<!-- Generator: Adobe Illustrator 16.0.0, SVG Export Plug-In . SVG Version: 6.00 Build 0)  -->
<!DOCTYPE svg PUBLIC "-//W3C//DTD SVG 1.1//EN" "http://www.w3.org/Graphics/SVG/1.1/DTD/svg11.dtd">
<svg version="1.1" id="Layer_1" xmlns="http://www.w3.org/2000/svg" xmlns:xlink="http://www.w3.org/1999/xlink" x="0px" y="0px"
	 width="383px" height="302px" viewBox="0 0 383 302" enable-background="new 0 0 383 302" xml:space="preserve">
<g>
	<path fill="#ED1C24" d="M96.451,190.059c-1.971,1.068-3.799,2.541-5.404,4.121c-4.963,4.896-8.6,10.777-11.983,16.814
		c-7.718,13.77-13.466,28.386-18.452,43.322c-0.238,0.715-0.507,1.416-0.762,2.123c0.587-4.512,1.463-8.92,2.436-13.305
		c4.408-19.861,8.88-39.707,13.223-59.58c0.517-2.365,0.686-4.898,0.482-7.31c-0.257-3.039-2.635-4.47-5.425-3.297
		c-2.227,0.937-4.452,2.174-6.261,3.758c-9.682,8.476-16.913,18.787-22.106,30.526c-1.856,4.197-3.155,8.556-2.89,13.248
		c0.336,5.944,5.851,10.42,11.731,9.399c0.434-0.073,0.966-0.673,1.078-1.119c0.068-0.274-0.517-0.922-0.922-1.058
		c-0.724-0.239-1.533-0.237-2.309-0.307c-4.548-0.404-7.407-3.213-7.234-7.773c0.107-2.832,0.632-5.771,1.616-8.422
		c4.721-12.733,12.352-23.541,22.447-32.59c1.449-1.301,3.204-2.328,4.96-3.199c1.942-0.963,3.111-0.303,3.117,1.854
		c0.006,2.256-0.293,4.551-0.771,6.76c-5.731,26.511-11.541,53.002-17.265,79.513c-0.657,3.041-0.971,6.162-1.297,9.261
		c-0.053,0.512,0.654,1.106,1.011,1.661c0.513-0.338,1.233-0.56,1.499-1.034c0.519-0.931,0.849-1.98,1.146-3.015
		c4.506-15.711,9.784-31.147,16.719-45.97c4.28-9.149,8.912-18.127,15.462-25.899c1.979-2.349,4.416-4.412,6.951-6.161
		c2.345-1.617,4.257-0.843,4.967,1.855c0.603,2.289,1.025,4.759,0.845,7.095c-0.574,7.478-1.378,14.938-2.258,22.386
		c-1.106,9.356-2.39,18.69-3.551,28.039c-0.115,0.934-0.031,1.932,0.166,2.855c0.355,1.666,1.739,2.035,2.915,0.783
		c0.606-0.647,1.151-1.42,1.482-2.233c0.258-0.631,0.699-1.625,0.19-2.136c-0.518-0.521-1.464,0.095-2.426,0.158
		c0.024-0.396,0.024-1.112,0.12-1.817c1.33-9.815,2.829-19.608,3.96-29.447c0.82-7.144,1.239-14.338,1.652-21.521
		c0.097-1.685-0.358-3.478-0.901-5.104C103.117,189.427,100.03,188.118,96.451,190.059"/>
	<path fill="#ED1C24" d="M284.503,223.943c0.226-1.897-1.771-1.494-2.967-1.578c-3.403-0.241-6.813-0.373-10.423-0.559
		c0.209-0.926,0.402-1.789,0.6-2.652c2.869-12.45,5.787-24.891,8.563-37.362c0.502-2.259,0.537-4.646,0.533-6.974
		c-0.002-0.721-0.699-1.77-1.349-2.059c-0.536-0.238-1.636,0.231-2.194,0.721c-0.934,0.816-1.779,1.816-2.408,2.89
		c-2.49,4.239-5.012,8.471-7.284,12.829c-5.33,10.216-10.513,20.507-15.806,30.738c-0.295,0.568-1.065,1.275-1.604,1.271
		c-5.698-0.103-11.395-0.312-17.088-0.552c-0.902-0.036-1.795-0.188-1.944,0.959c-0.166,1.273,0.788,1.418,1.763,1.453
		c3.418,0.125,6.834,0.252,10.252,0.396c2.121,0.092,4.24,0.221,6.336,0.332c0,0.322,0.045,0.461-0.006,0.548
		c-4.586,7.81-9.16,15.622-13.795,23.399c-0.478,0.801-1.25,1.469-2,2.051c-1.637,1.27-3.211,1.127-4.642-0.388
		c-0.572-0.606-1.138-1.28-1.474-2.03c-4.301-9.549-4.688-19.143,0.093-28.631c1.641-3.257,4.446-5.576,8.099-5.964
		c2.788-0.298,5.672,0.392,8.52,0.528c0.633,0.03,1.742,0.022,1.933-0.636c0.19-0.657-0.754-1.391-1.295-1.56
		c-8.692-2.704-16.75-0.483-20.606,9.048c-2.675,6.601-2.783,13.457-1.58,20.375c0.635,3.635,1.709,7.133,4.131,10.041
		c2.584,3.099,5.984,3.342,8.926,0.563c1.123-1.063,2.186-2.272,2.967-3.598c4.391-7.438,8.667-14.941,13.045-22.387
		c0.354-0.602,1.165-1.305,1.779-1.318c4.73-0.107,9.467-0.06,14.564-0.06c-0.244,1.183-0.357,1.765-0.48,2.345
		c-2.499,11.795-5.074,23.576-7.439,35.398c-0.572,2.85-0.586,5.834-0.6,8.76c-0.007,1.555,1.238,2.413,2.217,1.678
		c1.088-0.818,1.996-2.053,2.592-3.293c0.383-0.797-0.404-1.459-1.393-1.213c-0.301,0.074-0.566,0.295-0.963,0.59
		c-0.139,0.104-0.41-0.17-0.377-0.422c1.918-14.889,5.563-29.094,8.82-43.436c3.765,0.188,7.291,0.412,10.819,0.502
		C282.443,224.723,284.286,225.786,284.503,223.943 M268.947,220.527c-0.108,0.455-0.782,1.105-1.192,1.107
		c-4.317,0.006-8.635-0.1-12.954-0.188c-0.228-0.004-0.453-0.121-0.992-0.274c8.153-15.224,15.211-33.185,24.256-45.532
		c0.146-0.201,0.727-0.007,0.707,0.243c-0.211,2.865-0.648,5.535-1.268,8.236C274.723,196.271,271.846,208.402,268.947,220.527"/>
	<path fill="#ED1C24" d="M188.098,187.139c0.514-7.113-2.871-12.483-9.308-14.445c-3.559-1.084-7.23-1.139-10.869-0.594
		c-3.12,0.469-6.198,1.217-9.053,1.793c-0.541-0.603-0.787-1.725-1.52-1.694c-1.47,0.059-1.087,1.026-1.471,1.905
		c-0.306,0.699-0.924,1.311-1.555,1.672c-3.998,2.287-8.228,4.214-12.027,6.785c-5.589,3.782-10.273,8.508-12.535,15.131
		c-1.298,3.798-1.209,7.567,0.527,11.209c0.232,0.483,0.991,1.266,1.584,1.031c0.634-0.248,0.689-1.457,0.479-1.951
		c-2.089-4.898-1.192-9.461,1.589-13.705c5.024-7.666,12.489-12.228,20.926-16.109c-0.173,0.9-0.258,1.473-0.393,2.029
		c-2.014,8.343-4.093,16.666-6.041,25.022c-4.374,18.757-8.718,37.519-12.981,56.304c-0.619,2.729-0.793,5.576-1.001,8.381
		c-0.043,0.58,0.585,1.604,1.074,1.723c0.542,0.131,1.453-0.393,1.887-0.9c0.647-0.758,1.064-1.732,1.495-2.652
		c1.003-2.139,0.606-2.7-2.123-2.438c3.031-13.521,6.033-26.907,9.128-40.713c3.794,5.797,8.781,6.317,13.56,4.567
		c2.879-1.057,5.709-2.573,8.153-4.422c7.122-5.389,11.745-12.752,15.405-20.754C185.532,198.836,187.657,193.241,188.098,187.139
		 M166.345,223.091c-3.17,2.533-6.647,4.358-10.843,4.791c-5.287,0.548-9.087-4.84-7.965-9.33
		c3.332-13.327,6.509-26.694,9.787-40.036c0.148-0.604,0.577-1.437,1.073-1.613c5.92-2.122,11.971-3.488,18.291-2.188
		c6.176,1.271,9.153,5.123,9.06,12.478c-0.09,3.931-1.637,8.469-3.472,12.922C178.641,208.923,173.934,217.027,166.345,223.091"/>
	<path fill="#ED1C24" d="M281.754,157.292c8.258,2.045,16.5,4.104,25.107,3.892c3.953-0.097,7.922,0.006,11.735-1.287
		c4.529-1.535,5.691-4.41,3.449-8.642c-0.5-0.942-1.137-1.853-1.875-2.621c-2.744-2.865-6.004-5.117-9.863-5.955
		c-7.516-1.635-15.081-3.096-22.681-4.276c-6.617-1.027-13.296-1.715-19.971-2.285c-9.555-0.816-19.127-1.894-28.697-1.947
		c-14.34-0.082-28.688,0.533-43.021,1.057c-4.692,0.171-10.817,1.082-14.995,1.505c-0.212,0.022-0.175,0.641,0.04,0.639
		c2.693-0.023,5.976-0.311,8.489-0.395c11.758-0.393,23.519-1.027,35.278-1.056c10.607-0.027,21.227,0.48,31.826,1.016
		c7.115,0.36,14.229,1.006,21.306,1.845c7.354,0.871,14.688,1.979,21.981,3.271c4.271,0.757,8.545,1.784,12.627,3.228
		c3.791,1.342,6.864,3.926,8.504,7.798c1.117,2.636,0.668,3.699-1.939,4.775c-1.094,0.453-2.25,0.816-3.414,1.032
		c-7.971,1.47-15.901,0.724-23.724-0.93c-12.263-2.59-24.407-5.761-36.712-8.11c-10.852-2.072-21.811-3.782-32.801-4.859
		c-9.836-0.964-19.774-0.884-29.67-1.175c-2.019-0.06-8.681,0.169-8.821,0.528c-0.301,0.766,4.151,0.397,4.849,0.431
		c7.85,0.38,15.715,0.581,23.549,1.178c8.229,0.627,16.455,1.453,24.642,2.513C252.072,150.421,266.962,153.63,281.754,157.292"/>
	<path fill="#ED1C24" d="M359.436,221.377c-0.754-0.98-1.45-0.119-2.004,0.521c-2.002,2.316-3.996,4.639-5.983,6.967
		c-2.873,3.369-5.736,6.748-8.688,10.222c-0.762-1.313-1.455-2.487-2.129-3.673c-1.598-2.813-3.463-5.514-4.719-8.471
		c-2.5-5.881,1.52-10.791,7.816-9.883c0.444,0.064,1.254-0.316,1.381-0.674c0.141-0.396-0.166-1.195-0.537-1.465
		c-0.492-0.355-1.226-0.461-1.867-0.513c-4.135-0.332-7.656,1.897-9.223,5.757c-0.357,0.881-0.668,1.836-1.242,2.564
		c-2.262,2.875-4.496,5.791-6.984,8.461c-1.66,1.781-3.621,3.354-5.656,4.694c-2.135,1.412-4.049,0.813-5.008-1.155
		c-1.512-3.101-0.156-9.494,2.228-11.938c2.246-2.304,4.319-4.8,6.25-7.375c0.922-1.23,1.45-2.898,0.082-4.287
		c-0.916-0.929-2.886-0.561-4.216,1.227c-1.807,2.428-3.688,4.986-4.684,7.793c-1.889,5.318-5.559,9.037-9.758,12.385
		c-0.992,0.791-2.492,2.111-3.672,1.5c-1.224-0.633-0.998-2.694-0.916-4.006c0.156-2.438,0.828-4.84,1.113-7.276
		c0.073-0.658,0-1.918-0.728-2.08c-0.672-0.149-1.312,0.899-1.421,1.457c-0.568,2.875-1.088,5.772-1.361,8.687
		c-0.188,1.983-0.014,4.147,2.016,5.237c2.055,1.106,4.021,0.146,5.672-1.099c2.145-1.616,4.127-3.448,6.271-5.266
		c0.146,1.488,0.183,2.982,0.457,4.428c0.67,3.521,3.295,5.457,6.607,4.726c1.299-0.284,2.68-0.911,3.66-1.789
		c2.768-2.469,5.373-5.122,7.983-7.76c0.982-0.994,1.804-2.144,2.494-2.978c1.904,3.348,3.771,6.619,5.625,9.896
		c0.767,1.354,1.625,2.68,2.191,4.116c0.248,0.625,0.094,1.634-0.267,2.237c-1.743,2.938-3.729,5.735-5.401,8.711
		c-0.896,1.598-1.568,3.406-1.894,5.201c-0.18,0.994,0.248,2.616,0.978,3.114c0.719,0.492,2.246,0.14,3.264-0.248
		c0.898-0.338,1.676-1.157,2.353-1.905c3.44-3.825,4.922-8.36,4.319-13.444c-0.182-1.545,0.16-2.612,1.107-3.724
		c4.758-5.564,9.502-11.146,14.176-16.785C359.529,222.999,359.744,221.783,359.436,221.377 M317.5,218.232
		c0.676-1.625,1.646-3.608,3.232-4.621c0.211-0.135,0.688,0.25,0.584,0.479c-1.056,2.303-1.826,3.188-3.349,4.479
		C317.822,218.693,317.426,218.41,317.5,218.232 M334.914,257.654c1.043-4.758,3.746-8.391,6.406-12.504
		C342.07,249.996,338.92,256.119,334.914,257.654"/>
	<path fill="#ED1C24" d="M165.79,113.047c9.875-6.58,18.297-14.749,25.833-23.864c3.706-4.482,7.453-8.935,9.52-14.506
		c2.387-6.428,3.719-13.072,4.463-19.877c0.754-6.89,1.023-13.78,0.265-20.663c-0.277-2.509-0.959-5.043-1.894-7.391
		c-0.802-2.013-2.518-2.516-4.635-1.97c-4.013,1.035-7.238,3.415-10.203,6.17c-7.682,7.142-13.361,15.861-18.91,24.62
		c-8.205,12.954-16.088,26.11-24.163,39.146c-4.701,7.589-9.529,15.1-14.244,22.681c-0.636,1.022-2.034,3.449-2.527,4.56
		c-0.151,0.341,0.293,0.653,0.479,0.364c10.31-16.021,21.676-33.264,31.8-49.401c7.386-11.774,14.294-23.854,23.01-34.74
		c3.67-4.582,7.84-8.625,13.202-11.198c3.349-1.608,4.827-0.994,5.556,2.581c0.652,3.209,1.021,6.514,1.118,9.789
		c0.306,10.345-0.526,20.56-3.515,30.563c-2.188,7.317-6.485,13.274-11.237,19.031c-9.66,11.702-20.896,21.494-34.584,28.208
		c-4.655,2.283-9.58,4.016-14.386,5.993c0.538-0.012,1.086,0.021,1.6-0.093C150.778,121.178,158.601,117.838,165.79,113.047"/>
	<path fill="#ED1C24" d="M295.402,206.833c0.554-2.613,1.688-4.927,2.933-7.281c2.544-4.813,4.908-9.741,7.031-14.754
		c0.865-2.039,1.021-4.414,1.256-6.662c0.063-0.614-0.643-1.696-1.215-1.883c-0.604-0.194-1.729,0.215-2.168,0.741
		c-0.986,1.183-1.924,2.511-2.465,3.938c-1.574,4.146-3.306,8.28-4.326,12.575c-5.273,18.304-8.232,35.416-12.193,53.16
		c-1.163,5.204-1.896,10.508-2.823,15.765c0.156,1.913,1.168,3.099,1.889,2.284c0.895-1.013,1.936-2.854,1.559-3.797
		c-0.523-1.321-0.439-2.401-0.197-3.552C288.232,240.518,291.838,223.678,295.402,206.833 M303.57,179.99
		c0.186-0.282,1.02,0.027,0.951,0.357c-1.025,4.893-2.062,6.184-4.835,12.484c-0.112,0.256-0.851-0.023-0.782-0.295
		C300.051,188.088,301.352,183.418,303.57,179.99"/>
	<path fill="#ED1C24" d="M123.797,118.716c0.453-0.699,2.137-4.267,2.45-5.016c8.778-21.011,17.511-42.04,26.341-63.03
		c2.362-5.616,4.956-11.137,7.549-16.652c0.928-1.975,1.91-2.248,3.306-0.882c3.02,2.958,5.658,6.245,6.402,10.579
		c0.381,2.215,0.487,4.479,0.717,6.721c0.102,0.008,0.204,0.016,0.306,0.026c0.035-0.354,0.068-0.707,0.107-1.06
		c0.04-0.358,0.084-0.715,0.129-1.072c0.846-6.639-1.754-11.963-6.479-16.344c-2.36-2.188-4.724-1.685-6.038,1.245
		c-4.328,9.654-8.676,19.302-12.765,29.058c-7.298,17.413-14.821,34.741-20.837,52.664c-0.081,0.239-1.49,3.313-1.562,3.555
		C123.312,118.892,123.588,119.039,123.797,118.716"/>
	<path fill="#ED1C24" d="M202.346,221.669c-0.496-0.332-1.189,0.229-1.724,0.479c-0.284,0.131-0.412,0.57-0.646,0.847
		c-2.717,3.196-5.336,6.485-8.206,9.534c-1.369,1.455-3.112,2.66-4.882,3.611c-2.089,1.125-3.809,0.285-4.597-1.848
		c-1.31-3.547,0.124-9.26,2.856-11.885c1.596-1.535,3.148-3.143,4.498-4.891c0.894-1.16,1.568-2.571,1.991-3.974
		c0.208-0.688-0.137-1.933-0.677-2.353c-0.537-0.42-1.832-0.444-2.439-0.069c-1.193,0.733-2.347,1.724-3.151,2.862
		c-3.578,5.072-5.333,10.813-5.897,16.729c0.064,1.016,0.067,1.797,0.168,2.568c0.681,5.156,4.894,7.309,9.302,4.545
		c5.762-3.611,9.741-9.004,13.602-14.449C202.792,223.032,202.833,221.996,202.346,221.669 M188.147,214.212
		c0.449-0.453,1.106-0.541,0.697,0.261c-0.96,1.879-1.833,2.622-2.997,3.95c-0.134,0.152-0.54-0.034-0.487-0.231
		C185.82,216.479,186.756,215.614,188.147,214.212"/>
	<path fill="#ED1C24" d="M88.406,127.498c0.458-2.168,1.597-3.141,3.285-2.939c1.616,0.194,3.875,2.755,3.968,4.421
		c0.21,3.754,0.416,7.51,0.702,11.258c0.228,3.002,1.929,5.134,4.189,5.307c6.027,0.46,11.737-4.141,15.179-8.604
		c0.16-0.209,0.01-0.367-0.205-0.207c-0.244,0.18-6.331,6.766-12.995,7.31c-2.483,0.211-4.078-0.983-4.407-3.391
		c-0.299-2.192-0.682-4.375-0.942-6.572c-0.115-0.978-0.02-1.981-0.02-2.973c2.083,3.841,5.024,6.078,9.24,6.122
		c4.365,0.046,7.936-1.717,10.049-5.716c1.716-3.248,1.382-6.401-0.437-9.462c-0.113-0.19-1.059-1.758-1.271-1.677
		c-0.209,0.08,0.892,1.434,1.026,1.77c0.641,1.615,0.816,3.384,0.64,4.985c-0.442,4.046-2.852,6.691-6.765,7.979
		c-3.933,1.295-7.358,0.536-10.175-2.478c-1.651-1.766-2.396-3.869-1.313-6.254c0.862-1.9,1.681-3.836,2.727-5.635
		c1.692-2.913,4.519-4.073,7.783-3.286c1.063,0.257,2.092,0.661,3.237,1.083c0.317,0.116,0.497-0.074,0.252-0.268
		c-4.862-3.862-10.277-2.829-13.279,2.568c-1.172,2.105-2.051,4.373-3.069,6.579c-1.9-3.53-3.736-4.686-5.837-3.686
		c-1.432,0.682-2.227,2.148-1.979,3.823C88.037,127.874,88.339,127.816,88.406,127.498"/>
	<path fill="#ED1C24" d="M128.301,221.527c-0.407-0.224-1.192-0.104-1.558,0.187c-0.538,0.429-0.834,1.151-1.26,1.731
		c-2.853,3.886-5.854,7.64-10.103,10.105c-1.959,1.139-2.886,0.635-3.088-1.605c-0.102-1.123-0.05-2.287,0.121-3.403
		c0.307-2.015,0.845-3.994,1.093-6.015c0.071-0.586-0.125-1.744-0.803-1.883c-0.639-0.131-1.27,0.812-1.391,1.334
		c-0.632,2.736-1.541,5.467-1.617,8.277c-0.06,2.219-0.005,4.615,2.29,5.805c2.275,1.182,4.262-0.145,6.131-1.404
		c0.349-0.233,7.34-5.844,10.051-10.95C128.305,223.445,128.874,221.84,128.301,221.527"/>
	<path fill="#ED1C24" d="M131.635,148.281c-0.141-0.041-0.186,0.298-0.112,0.425c0.624,1.063,6.045,2.067,7.258,2.223
		c1.953,0.251,3.929,0.34,5.897,0.451c0.692,0.039,1.41,0.022,2.084-0.12c1.981-0.42,4-0.763,5.902-1.43
		c1.596-0.56,3.952-2.004,5.698-3.498c0.177-0.153,0.412-0.889,0.237-0.735C154.595,149.147,144.46,151.93,131.635,148.281"/>
	<path fill="#ED1C24" d="M176.472,145.279c-3.66,0.949-9.493,1.953-13.051,1.461c-0.293-0.041-0.403,0.207-0.137,0.351
		c2.961,1.604,9.619,1.174,13.368-1.375C176.994,145.482,176.871,145.175,176.472,145.279"/>
	<path fill="#ED1C24" d="M117.04,140.246c0,0,1.832,2.613,3.889,3.679c2.057,1.065,1.982,1.006,2.057,1.065
		c0.075,0.061,0.51,1.381,2.657,2.238c2.147,0.856,2.433,0.315,2.433,0.315s-9.189-6.514-9.744-6.967
		C117.775,140.124,116.56,139.617,117.04,140.246"/>
	<path fill="#ED1C24" d="M120.258,127.52c1.453,0.043,5.018,0.041,6.417-0.124c6.828-0.795,13.626-1.86,20.461-2.58
		c1.466-0.154,3.31,0.322,4.504,1.175c2.401,1.717,4.499,3.859,6.772,5.899c0.063,0.056,0.039,0.278-0.035,0.331
		c-0.457,0.32-2.221,1.103-2.629,1.39c-0.14,0.1,0.019,0.204,0.239,0.157c0.976-0.215,2.051-0.497,3.166-0.79l1.062,0.977
		c0,0,0.516,0.269,0.655,0.169c0.101-0.073-0.537-0.917-0.885-1.364c2.655-0.698,5.464-1.403,7.713-1.472
		c3.222-0.098,8.597,1.768,11.488,2.254c0.466,0.079,0.586-0.251,0.189-0.462c-5.476-2.908-12.385-5.29-19.793-1.303
		c-0.079,0.042-0.395-0.049-0.472-0.132c-2.204-2.376-4.276-4.612-6.355-6.856c3.183-1.521,6.437-2.789,9.402-4.545
		c9.834-5.82,19.552-11.834,29.338-17.734c5.425-3.27,10.878-6.532,17.017-8.311c5.09-1.476,8.797,0.994,8.492,5.656
		c-0.531,8.114-3.633,14.976-10.467,19.754c-2.895,2.023-8.971,5.262-11.211,6.358c-0.039,0.019,0.174,0.074,0.27,0.041
		c0.957-0.339,4.23-1.359,5.174-1.73c10.986-4.321,17.113-12.249,17.893-24.136c0.273-4.175-0.9-6.208-4.258-7.322
		c-2.385-0.792-4.86-1.075-7.158,0.015c-5.71,2.709-11.52,5.281-16.965,8.462c-11.676,6.822-23.147,13.994-34.706,21.016
		c-1.76,1.069-3.432,2.771-5.684,0.925c-0.114-0.093-0.352-0.056-0.53-0.047c-2.149,0.106-4.296,0.26-6.446,0.305
		c-0.743,0.016-1.491-0.199-2.238-0.327c0.021-0.008,0.042-0.017,0.063-0.025c-0.06,0.001-0.12,0.001-0.179,0.003l0.055,0.047
		c0.001,0,0.001,0,0.001-0.001l0.002,0.002c-5.99,1.242-14.123,2.519-20.181,3.773C119.625,127.135,119.511,127.498,120.258,127.52"
		/>
	<path fill="#ED1C24" d="M112.755,214.576c-0.403,0.998-0.658,2.166,0.891,2.019c1.548-0.151,2.079-1.063,2.079-1.7
		c0-0.636-0.212-1.188-0.785-1.252C114.94,213.641,113.158,213.58,112.755,214.576"/>
	<path fill="#ED1C24" d="M300.021,214.583c-0.404,0.998-0.658,2.166,0.891,2.017c1.549-0.148,2.08-1.062,2.08-1.699
		c0-0.635-0.213-1.187-0.785-1.252C302.207,213.648,300.424,213.587,300.021,214.583"/>
</g>
</svg>
