<?xml version="1.0" encoding="utf-8"?>
<!-- Generator: Adobe Illustrator 16.0.0, SVG Export Plug-In . SVG Version: 6.00 Build 0)  -->
<!DOCTYPE svg PUBLIC "-//W3C//DTD SVG 1.1//EN" "http://www.w3.org/Graphics/SVG/1.1/DTD/svg11.dtd">
<svg version="1.1" id="Layer_1" xmlns="http://www.w3.org/2000/svg" xmlns:xlink="http://www.w3.org/1999/xlink" x="0px" y="0px"
	 width="383px" height="197px" viewBox="0 0 383 197" enable-background="new 0 0 383 197" xml:space="preserve">
<g>
	<path fill="#FFFFFF" d="M281.754,157.292c8.258,2.045,16.5,4.104,25.107,3.892c3.953-0.097,7.922,0.006,11.735-1.287
		c4.529-1.535,5.691-4.41,3.449-8.642c-0.5-0.942-1.137-1.853-1.875-2.621c-2.744-2.864-6.004-5.116-9.863-5.954
		c-7.516-1.636-15.081-3.097-22.681-4.277c-6.617-1.026-13.296-1.715-19.971-2.284c-9.555-0.816-19.127-1.894-28.697-1.947
		c-14.34-0.082-28.688,0.533-43.021,1.058c-4.692,0.17-10.817,1.082-14.995,1.504c-0.212,0.022-0.175,0.642,0.04,0.64
		c2.693-0.022,5.976-0.312,8.489-0.396c11.758-0.393,23.519-1.026,35.278-1.056c10.607-0.026,21.227,0.479,31.826,1.017
		c7.115,0.359,14.229,1.006,21.306,1.845c7.354,0.87,14.688,1.979,21.981,3.271c4.271,0.758,8.545,1.784,12.627,3.228
		c3.791,1.342,6.864,3.926,8.504,7.798c1.117,2.636,0.668,3.699-1.939,4.775c-1.094,0.453-2.25,0.816-3.414,1.032
		c-7.971,1.47-15.901,0.724-23.724-0.93c-12.263-2.59-24.407-5.761-36.712-8.11c-10.852-2.072-21.811-3.781-32.801-4.858
		c-9.836-0.964-19.774-0.884-29.67-1.175c-2.019-0.061-8.681,0.168-8.821,0.527c-0.301,0.766,4.151,0.397,4.849,0.432
		c7.85,0.379,15.715,0.58,23.549,1.178c8.229,0.627,16.455,1.453,24.642,2.513C252.072,150.421,266.962,153.63,281.754,157.292"/>
	<path fill="#FFFFFF" d="M165.79,113.047c9.875-6.58,18.297-14.749,25.833-23.864c3.706-4.482,7.453-8.935,9.52-14.506
		c2.387-6.428,3.719-13.072,4.463-19.877c0.754-6.89,1.023-13.78,0.265-20.663c-0.277-2.509-0.959-5.043-1.894-7.391
		c-0.802-2.013-2.518-2.516-4.635-1.97c-4.013,1.035-7.238,3.415-10.203,6.17c-7.682,7.142-13.361,15.861-18.91,24.62
		c-8.205,12.954-16.088,26.11-24.163,39.146c-4.701,7.589-9.529,15.101-14.244,22.681c-0.636,1.022-2.034,3.449-2.527,4.561
		c-0.151,0.341,0.293,0.652,0.479,0.363c10.31-16.021,21.676-33.264,31.8-49.4c7.386-11.774,14.294-23.854,23.01-34.74
		c3.67-4.582,7.84-8.625,13.202-11.198c3.349-1.608,4.827-0.994,5.556,2.581c0.652,3.209,1.021,6.514,1.118,9.789
		c0.306,10.345-0.526,20.56-3.515,30.563c-2.188,7.317-6.485,13.274-11.237,19.031c-9.66,11.703-20.896,21.494-34.584,28.208
		c-4.655,2.283-9.58,4.016-14.386,5.992c0.538-0.012,1.086,0.021,1.6-0.093C150.778,121.178,158.601,117.838,165.79,113.047"/>
	<path fill="#FFFFFF" d="M123.797,118.716c0.453-0.698,2.137-4.267,2.45-5.016c8.778-21.011,17.511-42.04,26.341-63.03
		c2.362-5.616,4.956-11.137,7.549-16.652c0.928-1.975,1.91-2.248,3.306-0.882c3.02,2.958,5.658,6.245,6.402,10.579
		c0.381,2.215,0.487,4.479,0.717,6.721c0.102,0.008,0.204,0.016,0.306,0.026c0.035-0.354,0.068-0.707,0.107-1.06
		c0.04-0.358,0.084-0.715,0.129-1.072c0.846-6.639-1.754-11.963-6.479-16.344c-2.36-2.188-4.724-1.685-6.038,1.245
		c-4.328,9.654-8.676,19.302-12.765,29.058c-7.298,17.413-14.821,34.741-20.837,52.664c-0.081,0.238-1.49,3.313-1.562,3.555
		C123.312,118.893,123.588,119.039,123.797,118.716"/>
	<path fill="#FFFFFF" d="M88.406,127.498c0.458-2.168,1.597-3.141,3.285-2.939c1.616,0.194,3.875,2.756,3.968,4.422
		c0.21,3.754,0.416,7.51,0.702,11.258c0.228,3.002,1.929,5.134,4.189,5.307c6.027,0.46,11.737-4.141,15.179-8.604
		c0.16-0.209,0.01-0.367-0.205-0.207c-0.244,0.18-6.331,6.766-12.995,7.31c-2.483,0.211-4.078-0.983-4.407-3.392
		c-0.299-2.191-0.682-4.375-0.942-6.571c-0.115-0.978-0.02-1.981-0.02-2.974c2.083,3.842,5.024,6.078,9.24,6.123
		c4.365,0.045,7.936-1.718,10.049-5.717c1.716-3.248,1.382-6.4-0.437-9.462c-0.113-0.19-1.059-1.758-1.271-1.677
		c-0.209,0.08,0.892,1.434,1.026,1.77c0.641,1.615,0.816,3.385,0.64,4.985c-0.442,4.046-2.852,6.69-6.765,7.979
		c-3.933,1.295-7.358,0.535-10.175-2.479c-1.651-1.766-2.396-3.869-1.313-6.254c0.862-1.9,1.681-3.836,2.727-5.635
		c1.692-2.913,4.519-4.073,7.783-3.286c1.063,0.257,2.092,0.661,3.237,1.083c0.317,0.115,0.497-0.074,0.252-0.268
		c-4.862-3.862-10.277-2.83-13.279,2.567c-1.172,2.104-2.051,4.373-3.069,6.579c-1.9-3.53-3.736-4.686-5.837-3.686
		c-1.432,0.682-2.227,2.147-1.979,3.822C88.037,127.874,88.339,127.816,88.406,127.498"/>
	<path fill="#FFFFFF" d="M131.635,148.281c-0.141-0.041-0.186,0.298-0.112,0.425c0.624,1.063,6.045,2.067,7.258,2.224
		c1.953,0.25,3.929,0.34,5.897,0.45c0.692,0.039,1.41,0.022,2.084-0.12c1.981-0.42,4-0.763,5.902-1.43
		c1.596-0.561,3.952-2.004,5.698-3.498c0.177-0.152,0.412-0.889,0.237-0.734C154.595,149.146,144.46,151.93,131.635,148.281"/>
	<path fill="#FFFFFF" d="M176.472,145.279c-3.66,0.949-9.493,1.953-13.051,1.461c-0.293-0.041-0.403,0.207-0.137,0.351
		c2.961,1.604,9.619,1.175,13.368-1.375C176.994,145.482,176.871,145.175,176.472,145.279"/>
	<path fill="#FFFFFF" d="M117.04,140.246c0,0,1.832,2.613,3.889,3.679c2.057,1.065,1.982,1.007,2.057,1.065
		c0.075,0.061,0.51,1.381,2.657,2.238c2.147,0.855,2.433,0.314,2.433,0.314s-9.189-6.514-9.744-6.967
		C117.775,140.124,116.56,139.617,117.04,140.246"/>
	<path fill="#FFFFFF" d="M120.258,127.52c1.453,0.043,5.018,0.041,6.417-0.123c6.828-0.795,13.626-1.86,20.461-2.58
		c1.466-0.154,3.31,0.322,4.504,1.175c2.401,1.717,4.499,3.858,6.772,5.899c0.063,0.055,0.039,0.277-0.035,0.33
		c-0.457,0.32-2.221,1.104-2.629,1.391c-0.14,0.1,0.019,0.203,0.239,0.156c0.976-0.215,2.051-0.496,3.166-0.789l1.062,0.977
		c0,0,0.516,0.27,0.655,0.169c0.101-0.073-0.537-0.917-0.885-1.364c2.655-0.697,5.464-1.402,7.713-1.472
		c3.222-0.099,8.597,1.769,11.488,2.254c0.466,0.079,0.586-0.251,0.189-0.462c-5.476-2.908-12.385-5.29-19.793-1.303
		c-0.079,0.041-0.395-0.049-0.472-0.133c-2.204-2.375-4.276-4.611-6.355-6.855c3.183-1.521,6.437-2.789,9.402-4.545
		c9.834-5.82,19.552-11.834,29.338-17.734c5.425-3.27,10.878-6.532,17.017-8.311c5.09-1.476,8.797,0.994,8.492,5.656
		c-0.531,8.113-3.633,14.976-10.467,19.754c-2.895,2.022-8.971,5.262-11.211,6.357c-0.039,0.02,0.174,0.074,0.27,0.041
		c0.957-0.339,4.23-1.359,5.174-1.73c10.986-4.32,17.113-12.248,17.893-24.135c0.273-4.176-0.9-6.208-4.258-7.323
		c-2.385-0.792-4.86-1.075-7.158,0.015c-5.71,2.709-11.52,5.281-16.965,8.462c-11.676,6.822-23.147,13.994-34.706,21.016
		c-1.76,1.069-3.432,2.771-5.684,0.926c-0.114-0.094-0.352-0.057-0.53-0.047c-2.149,0.105-4.296,0.26-6.446,0.305
		c-0.743,0.016-1.491-0.199-2.238-0.327c0.021-0.008,0.042-0.017,0.063-0.024c-0.06,0-0.12,0-0.179,0.002l0.055,0.047
		c0.001,0,0.001,0,0.001,0l0.002,0.002c-5.99,1.242-14.123,2.519-20.181,3.772C119.625,127.135,119.511,127.498,120.258,127.52"/>
</g>
</svg>
