<?xml version="1.0" encoding="utf-8"?>
<!-- Generator: Adobe Illustrator 16.0.0, SVG Export Plug-In . SVG Version: 6.00 Build 0)  -->
<!DOCTYPE svg PUBLIC "-//W3C//DTD SVG 1.1//EN" "http://www.w3.org/Graphics/SVG/1.1/DTD/svg11.dtd">
<svg version="1.1" id="Layer_1" xmlns="http://www.w3.org/2000/svg" xmlns:xlink="http://www.w3.org/1999/xlink" x="0px" y="0px"
	 width="383px" height="193px" viewBox="0 0 383 193" enable-background="new 0 0 383 193" xml:space="preserve">
<g>
	<path fill-rule="evenodd" clip-rule="evenodd" d="M281.754,157.292c8.258,2.045,16.5,4.104,25.107,3.892
		c3.953-0.097,7.922,0.006,11.736-1.287c4.529-1.535,5.691-4.41,3.449-8.642c-0.5-0.942-1.137-1.853-1.875-2.621
		c-2.744-2.865-6.004-5.117-9.863-5.955c-7.516-1.635-15.082-3.096-22.681-4.276c-6.617-1.027-13.296-1.715-19.971-2.285
		c-9.555-0.816-19.127-1.894-28.697-1.947c-14.34-0.082-28.687,0.533-43.021,1.057c-4.693,0.171-10.818,1.082-14.995,1.505
		c-0.212,0.022-0.175,0.641,0.04,0.639c2.693-0.023,5.976-0.311,8.489-0.395c11.759-0.393,23.519-1.027,35.278-1.056
		c10.607-0.027,21.226,0.48,31.826,1.016c7.115,0.36,14.229,1.006,21.306,1.845c7.354,0.871,14.688,1.979,21.981,3.271
		c4.271,0.757,8.545,1.784,12.627,3.227c3.791,1.342,6.865,3.926,8.504,7.798c1.117,2.636,0.668,3.699-1.939,4.775
		c-1.094,0.453-2.25,0.817-3.414,1.033c-7.971,1.469-15.902,0.723-23.724-0.93c-12.262-2.59-24.407-5.761-36.712-8.11
		c-10.851-2.072-21.81-3.782-32.8-4.859c-9.837-0.964-19.775-0.884-29.671-1.175c-2.018-0.06-8.68,0.169-8.821,0.528
		c-0.301,0.766,4.151,0.397,4.849,0.431c7.85,0.38,15.714,0.581,23.548,1.178c8.23,0.627,16.455,1.453,24.642,2.513
		C252.072,150.421,266.962,153.63,281.754,157.292"/>
	<path fill-rule="evenodd" clip-rule="evenodd" d="M165.79,113.047c9.875-6.58,18.297-14.749,25.833-23.864
		c3.706-4.482,7.453-8.935,9.52-14.506c2.387-6.428,3.719-13.072,4.463-19.877c0.754-6.89,1.023-13.78,0.264-20.663
		c-0.277-2.509-0.959-5.043-1.893-7.391c-0.802-2.013-2.518-2.516-4.635-1.97c-4.013,1.035-7.239,3.415-10.203,6.17
		c-7.682,7.142-13.361,15.861-18.91,24.62c-8.205,12.954-16.088,26.11-24.163,39.146c-4.701,7.589-9.529,15.1-14.244,22.681
		c-0.636,1.022-2.034,3.449-2.527,4.56c-0.151,0.341,0.293,0.653,0.479,0.364c10.31-16.021,21.676-33.264,31.8-49.401
		c7.386-11.774,14.294-23.854,23.01-34.74c3.67-4.582,7.84-8.625,13.202-11.198c3.349-1.608,4.828-0.994,5.556,2.581
		c0.652,3.209,1.021,6.514,1.118,9.789c0.306,10.345-0.526,20.56-3.515,30.563c-2.187,7.317-6.485,13.274-11.237,19.031
		c-9.66,11.702-20.896,21.494-34.584,28.208c-4.655,2.283-9.58,4.016-14.386,5.993c0.538-0.012,1.086,0.021,1.6-0.093
		C150.778,121.178,158.601,117.838,165.79,113.047"/>
	<path fill-rule="evenodd" clip-rule="evenodd" d="M123.797,118.716c0.453-0.699,2.137-4.267,2.45-5.016
		c8.778-21.011,17.511-42.04,26.341-63.03c2.362-5.616,4.956-11.137,7.549-16.652c0.928-1.975,1.91-2.248,3.306-0.882
		c3.02,2.958,5.658,6.245,6.402,10.579c0.381,2.215,0.487,4.479,0.717,6.721c0.102,0.008,0.204,0.016,0.306,0.026
		c0.035-0.354,0.068-0.707,0.107-1.06c0.04-0.358,0.084-0.715,0.129-1.072c0.846-6.639-1.754-11.963-6.479-16.344
		c-2.36-2.188-4.724-1.685-6.038,1.245c-4.328,9.654-8.676,19.302-12.765,29.058c-7.298,17.413-14.821,34.741-20.837,52.664
		c-0.081,0.239-1.49,3.313-1.562,3.555C123.312,118.892,123.588,119.039,123.797,118.716"/>
	<path fill-rule="evenodd" clip-rule="evenodd" d="M88.406,127.498c0.458-2.168,1.597-3.141,3.285-2.939
		c1.616,0.194,3.875,2.755,3.968,4.421c0.21,3.754,0.416,7.51,0.702,11.258c0.228,3.002,1.929,5.134,4.189,5.307
		c6.027,0.46,11.737-4.141,15.179-8.604c0.16-0.209,0.01-0.367-0.205-0.207c-0.244,0.18-6.331,6.766-12.995,7.31
		c-2.483,0.211-4.078-0.983-4.407-3.391c-0.299-2.192-0.682-4.375-0.942-6.572c-0.115-0.978-0.02-1.981-0.02-2.973
		c2.083,3.841,5.024,6.078,9.24,6.122c4.365,0.046,7.936-1.717,10.049-5.716c1.716-3.248,1.382-6.401-0.437-9.462
		c-0.113-0.19-1.059-1.758-1.271-1.677c-0.209,0.08,0.892,1.434,1.026,1.77c0.641,1.615,0.816,3.384,0.64,4.985
		c-0.442,4.046-2.852,6.691-6.765,7.979c-3.933,1.295-7.358,0.536-10.175-2.478c-1.651-1.766-2.396-3.869-1.313-6.254
		c0.862-1.9,1.681-3.836,2.727-5.635c1.692-2.913,4.519-4.073,7.783-3.286c1.063,0.257,2.092,0.661,3.237,1.083
		c0.317,0.116,0.497-0.074,0.252-0.268c-4.862-3.862-10.277-2.829-13.279,2.568c-1.172,2.105-2.051,4.373-3.069,6.579
		c-1.9-3.53-3.736-4.686-5.837-3.686c-1.432,0.682-2.227,2.148-1.979,3.823C88.037,127.874,88.339,127.816,88.406,127.498"/>
	<path fill-rule="evenodd" clip-rule="evenodd" d="M131.635,148.281c-0.141-0.041-0.186,0.298-0.112,0.425
		c0.624,1.063,6.045,2.067,7.258,2.223c1.953,0.251,3.929,0.34,5.897,0.451c0.692,0.039,1.41,0.022,2.084-0.12
		c1.981-0.42,4-0.763,5.902-1.43c1.596-0.56,3.952-2.004,5.698-3.498c0.177-0.153,0.412-0.889,0.237-0.735
		C154.595,149.147,144.46,151.93,131.635,148.281"/>
	<path fill-rule="evenodd" clip-rule="evenodd" d="M176.472,145.279c-3.66,0.949-9.493,1.953-13.051,1.461
		c-0.293-0.041-0.403,0.207-0.137,0.351c2.961,1.604,9.619,1.174,13.368-1.375C176.994,145.482,176.871,145.175,176.472,145.279"/>
	<path fill-rule="evenodd" clip-rule="evenodd" d="M117.04,140.246c0,0,1.832,2.613,3.889,3.679
		c2.057,1.065,1.982,1.006,2.057,1.065c0.075,0.061,0.51,1.381,2.657,2.238c2.147,0.856,2.433,0.315,2.433,0.315
		s-9.189-6.514-9.744-6.967C117.775,140.124,116.56,139.617,117.04,140.246"/>
	<path fill-rule="evenodd" clip-rule="evenodd" d="M120.258,127.52c1.453,0.043,5.018,0.041,6.417-0.124
		c6.828-0.795,13.626-1.86,20.461-2.58c1.466-0.154,3.31,0.322,4.504,1.175c2.401,1.717,4.499,3.859,6.772,5.899
		c0.063,0.056,0.039,0.278-0.035,0.331c-0.457,0.32-2.221,1.103-2.629,1.39c-0.14,0.1,0.019,0.204,0.239,0.157
		c0.976-0.215,2.051-0.497,3.166-0.79l1.062,0.977c0,0,0.516,0.269,0.655,0.169c0.101-0.073-0.537-0.917-0.885-1.364
		c2.655-0.698,5.464-1.403,7.713-1.472c3.222-0.098,8.597,1.768,11.488,2.254c0.466,0.079,0.586-0.251,0.189-0.462
		c-5.476-2.908-12.385-5.29-19.793-1.303c-0.079,0.042-0.395-0.049-0.472-0.132c-2.204-2.376-4.276-4.612-6.355-6.856
		c3.183-1.521,6.437-2.789,9.402-4.545c9.834-5.82,19.552-11.834,29.338-17.734c5.425-3.27,10.878-6.532,17.017-8.311
		c5.09-1.476,8.797,0.994,8.492,5.656c-0.531,8.114-3.633,14.976-10.467,19.754c-2.895,2.023-8.97,5.262-11.211,6.358
		c-0.039,0.019,0.174,0.074,0.27,0.041c0.957-0.339,4.23-1.359,5.174-1.73c10.986-4.321,17.113-12.249,17.892-24.136
		c0.274-4.175-0.901-6.208-4.258-7.322c-2.384-0.792-4.86-1.075-7.158,0.015c-5.71,2.709-11.52,5.281-16.965,8.462
		c-11.676,6.822-23.147,13.994-34.706,21.016c-1.76,1.069-3.432,2.771-5.684,0.925c-0.114-0.093-0.352-0.056-0.53-0.047
		c-2.149,0.106-4.296,0.26-6.446,0.305c-0.743,0.016-1.491-0.199-2.238-0.327c0.021-0.008,0.042-0.017,0.063-0.025
		c-0.06,0.001-0.12,0.001-0.179,0.003l0.055,0.047c0.001,0,0.001,0,0.001-0.001l0.002,0.002c-5.99,1.242-14.123,2.519-20.181,3.773
		C119.625,127.135,119.511,127.498,120.258,127.52"/>
</g>
</svg>
