<svg xmlns="http://www.w3.org/2000/svg" xmlns:xlink="http://www.w3.org/1999/xlink" width="1080" zoomAndPan="magnify" viewBox="0 0 810 1012.49997" height="1350" preserveAspectRatio="xMidYMid meet" version="1.0"><defs><clipPath id="ae01099454"><path d="M 175.15625 201.15625 L 634.679688 201.15625 L 634.679688 660.679688 L 175.15625 660.679688 Z M 175.15625 201.15625 " clip-rule="nonzero"/></clipPath></defs><g clip-path="url(#ae01099454)"><path fill="#f4a8c4" d="M 404.996094 615.34375 C 303.34375 615.34375 220.644531 532.644531 220.644531 430.992188 C 220.644531 329.339844 303.34375 246.644531 404.996094 246.644531 C 506.644531 246.644531 589.34375 329.339844 589.34375 430.992188 C 589.34375 532.644531 506.644531 615.34375 404.996094 615.34375 Z M 404.996094 256.015625 C 308.511719 256.015625 230.019531 334.511719 230.019531 430.992188 C 230.019531 527.476562 308.511719 605.96875 404.996094 605.96875 C 501.476562 605.96875 579.972656 527.476562 579.972656 430.992188 C 579.972656 334.511719 501.476562 256.015625 404.996094 256.015625 Z M 404.996094 660.832031 C 343.601562 660.832031 285.886719 636.921875 242.476562 593.511719 C 199.066406 550.101562 175.15625 492.382812 175.15625 430.992188 C 175.15625 369.601562 199.066406 311.882812 242.476562 268.472656 C 285.886719 225.0625 343.601562 201.15625 404.996094 201.15625 C 466.386719 201.15625 524.105469 225.0625 567.515625 268.472656 C 610.925781 311.882812 634.832031 369.601562 634.832031 430.992188 C 634.832031 492.382812 610.925781 550.101562 567.515625 593.511719 C 524.105469 636.921875 466.386719 660.832031 404.996094 660.832031 Z M 404.996094 210.527344 C 283.429688 210.527344 184.53125 309.429688 184.53125 430.992188 C 184.53125 552.558594 283.429688 651.457031 404.996094 651.457031 C 526.558594 651.457031 625.460938 552.558594 625.460938 430.992188 C 625.460938 309.429688 526.558594 210.527344 404.996094 210.527344 Z M 404.996094 638.558594 C 290.542969 638.558594 197.429688 545.445312 197.429688 430.992188 C 197.429688 316.542969 290.542969 223.429688 404.996094 223.429688 C 519.449219 223.429688 612.5625 316.542969 612.5625 430.992188 C 612.5625 545.445312 519.449219 638.558594 404.996094 638.558594 Z M 404.996094 232.800781 C 295.710938 232.800781 206.800781 321.710938 206.800781 430.992188 C 206.800781 540.277344 295.710938 629.183594 404.996094 629.183594 C 514.277344 629.183594 603.1875 540.277344 603.1875 430.992188 C 603.1875 321.710938 514.277344 232.800781 404.996094 232.800781 Z M 404.996094 455.925781 C 391.246094 455.925781 380.0625 444.742188 380.0625 430.992188 C 380.0625 417.246094 391.246094 406.0625 404.996094 406.0625 C 418.742188 406.0625 429.925781 417.246094 429.925781 430.992188 C 429.925781 444.742188 418.742188 455.925781 404.996094 455.925781 Z M 404.996094 415.433594 C 396.417969 415.433594 389.4375 422.414062 389.4375 430.992188 C 389.4375 439.574219 396.417969 446.550781 404.996094 446.550781 C 413.574219 446.550781 420.554688 439.574219 420.554688 430.992188 C 420.554688 422.414062 413.574219 415.433594 404.996094 415.433594 Z M 404.996094 480.175781 C 377.875 480.175781 355.8125 458.113281 355.8125 430.992188 C 355.8125 403.871094 377.875 381.808594 404.996094 381.808594 C 432.117188 381.808594 454.179688 403.871094 454.179688 430.992188 C 454.179688 458.113281 432.117188 480.175781 404.996094 480.175781 Z M 404.996094 391.183594 C 383.042969 391.183594 365.183594 409.042969 365.183594 430.992188 C 365.183594 452.945312 383.042969 470.804688 404.996094 470.804688 C 426.945312 470.804688 444.804688 452.945312 444.804688 430.992188 C 444.804688 409.042969 426.945312 391.183594 404.996094 391.183594 Z M 404.996094 503.933594 C 364.773438 503.933594 332.054688 471.214844 332.054688 430.992188 C 332.054688 390.773438 364.773438 358.050781 404.996094 358.050781 C 445.214844 358.050781 477.9375 390.773438 477.9375 430.992188 C 477.9375 471.214844 445.214844 503.933594 404.996094 503.933594 Z M 404.996094 367.425781 C 369.941406 367.425781 341.425781 395.941406 341.425781 430.992188 C 341.425781 466.042969 369.941406 494.5625 404.996094 494.5625 C 440.046875 494.5625 468.5625 466.042969 468.5625 430.992188 C 468.5625 395.941406 440.046875 367.425781 404.996094 367.425781 Z M 404.996094 525.214844 C 353.039062 525.214844 310.769531 482.949219 310.769531 430.992188 C 310.769531 379.039062 353.039062 336.769531 404.996094 336.769531 C 456.949219 336.769531 499.21875 379.039062 499.21875 430.992188 C 499.21875 482.949219 456.949219 525.214844 404.996094 525.214844 Z M 404.996094 346.140625 C 358.207031 346.140625 320.144531 384.207031 320.144531 430.992188 C 320.144531 477.777344 358.207031 515.84375 404.996094 515.84375 C 451.78125 515.84375 489.847656 477.777344 489.847656 430.992188 C 489.847656 384.207031 451.78125 346.140625 404.996094 346.140625 Z M 404.996094 547.984375 C 340.484375 547.984375 288.003906 495.5 288.003906 430.992188 C 288.003906 366.484375 340.484375 314 404.996094 314 C 469.503906 314 521.984375 366.484375 521.984375 430.992188 C 521.984375 495.5 469.503906 547.984375 404.996094 547.984375 Z M 404.996094 323.375 C 345.65625 323.375 297.378906 371.652344 297.378906 430.992188 C 297.378906 490.332031 345.65625 538.609375 404.996094 538.609375 C 464.335938 538.609375 512.613281 490.332031 512.613281 430.992188 C 512.613281 371.652344 464.335938 323.375 404.996094 323.375 Z M 404.996094 570.257812 C 328.207031 570.257812 265.730469 507.785156 265.730469 430.992188 C 265.730469 354.203125 328.207031 291.730469 404.996094 291.730469 C 481.785156 291.730469 544.257812 354.203125 544.257812 430.992188 C 544.257812 507.785156 481.785156 570.257812 404.996094 570.257812 Z M 404.996094 301.101562 C 333.375 301.101562 275.105469 359.371094 275.105469 430.992188 C 275.105469 502.613281 333.375 560.882812 404.996094 560.882812 C 476.617188 560.882812 534.886719 502.613281 534.886719 430.992188 C 534.886719 359.371094 476.617188 301.101562 404.996094 301.101562 Z M 404.996094 593.519531 C 315.378906 593.519531 242.46875 520.609375 242.46875 430.992188 C 242.46875 341.375 315.378906 268.46875 404.996094 268.46875 C 494.613281 268.46875 567.519531 341.375 567.519531 430.992188 C 567.519531 520.609375 494.613281 593.519531 404.996094 593.519531 Z M 404.996094 277.839844 C 320.546875 277.839844 251.84375 346.542969 251.84375 430.992188 C 251.84375 515.441406 320.546875 584.144531 404.996094 584.144531 C 489.445312 584.144531 558.148438 515.441406 558.148438 430.992188 C 558.148438 346.542969 489.445312 277.839844 404.996094 277.839844 Z M 404.996094 277.839844 " fill-opacity="1" fill-rule="nonzero"/></g></svg>